<svg viewBox="0 0 24 24" xmlns="http://www.w3.org/2000/svg"><title>Dell</title>
  <circle cx="12" cy="12" r="10.5" fill="none" stroke="#007db8" stroke-width="2.5"/>
  <g fill="#007db8" stroke="#007db8" stroke-width="0.4" stroke-linejoin="round" transform="translate(12,12) scale(0.90) translate(-12,-12)">
    <path d="M17.963 14.6V9.324h1.222v4.204h2.14v1.07h-3.362zm-9.784-3.288l2.98-2.292c.281.228.56.458.841.687l-2.827 2.14.611.535 2.827-2.216c.281.228.56.458.841.688a295.83 295.83 0 0 1-2.827 2.216l.61.536 2.83-2.295-.001-1.986h1.223v4.204h2.216v1.07h-3.362v-1.987c-.995.763-1.987 1.529-2.981 2.292l-2.981-2.292c-.144.729-.653 1.36-1.312 1.694-.285.147-.597.24-.915.276-.183.022-.367.017-.551.017H3.516V9.325H5.69a2.544 2.544 0 0 1 1.563.557c.454.36.778.872.927 1.43m-3.516-.917v3.21l.953-.001a1.377 1.377 0 0 0 1.036-.523 1.74 1.74 0 0 0 .182-1.889 1.494 1.494 0 0 0-.976-.766c-.166-.04-.338-.03-.507-.032h-.688z"/>
  </g>
</svg>
