<svg viewBox="0 0.006 159.999 26.786" fill="none" xmlns="http://www.w3.org/2000/svg" width="159.999" height="26.786"><g clip-path="url(#clip0_1604_82645)"><path d="M0 11.2115C0.348629 10.2562 0.596156 9.26265 1.02148 8.34575C2.87271 4.31559 6.09753 1.91354 10.302 0.780489C11.8857 0.351188 13.5212 0.14352 15.1619 0.163414C18.9306 0.208736 22.6958 0.17736 26.4645 0.180846C26.8863 0.153712 27.3098 0.175943 27.7265 0.247085C28.8805 0.522503 29.25 1.74968 28.4761 2.6596C27.8067 3.44751 26.8933 3.59393 25.9241 3.59393C22.4866 3.59393 19.0491 3.61485 15.6116 3.59393C14.2051 3.56965 12.8027 3.75171 11.449 4.13431C7.99059 5.13139 6.0034 7.48813 5.12834 10.8629C4.66817 12.4015 4.66817 14.0412 5.12834 15.5798C5.64509 17.3039 6.68865 18.8229 8.11261 19.9237C10.5011 21.6909 13.3216 22.782 16.2775 23.0823C17.4384 23.2148 18.6064 23.3159 19.7638 23.3647C20.8376 23.4066 20.7679 23.5216 21.0956 22.3502C21.4825 20.9557 21.7231 19.5228 22.0194 18.1074C22.4552 16.0156 22.8806 13.8959 23.3129 11.7902C23.3512 11.6089 23.407 11.4416 23.4349 11.2429C23.6162 10.1273 23.6127 10.1203 22.4831 10.1168C20.2693 10.1168 18.0555 10.1377 15.8592 10.1168C14.6982 10.0959 14.1613 9.32889 14.4437 8.22373C14.5201 7.94844 14.6713 7.69972 14.8806 7.50522C15.0898 7.31073 15.3489 7.1781 15.6291 7.12206C16.3437 6.90272 17.0825 6.77159 17.8289 6.7316C20.1833 6.68512 22.5377 6.68512 24.8921 6.7316C25.6867 6.76421 26.4755 6.88107 27.2454 7.08023C28.0682 7.27198 28.368 7.61363 28.2913 8.50612C28.1379 9.99129 27.8799 11.466 27.594 12.9267C26.8968 16.3189 26.1995 19.7006 25.4744 23.0823C25.2512 24.1282 25.1641 25.2508 24.1984 25.969C23.7974 26.2653 23.3547 26.5198 22.9328 26.7918H14.9911C14.848 26.6699 14.6837 26.5753 14.5065 26.5128C11.7946 26.232 9.15905 25.4468 6.73552 24.1979C4.08942 22.8034 1.93489 20.9104 0.742581 18.0865C0.491568 17.4903 0.247527 16.8942 0 16.3015V11.2115Z" fill="#C30B32"></path><path d="M58.7823 26.7395C58.0153 26.112 57.8515 25.3938 58.0851 24.3793C59.131 19.5926 60.0618 14.778 61.0624 9.98087C61.5958 7.42193 62.1536 4.86647 62.7602 2.31102C62.9624 1.44641 63.2866 0.588785 64.2732 0.2541C65.5632 -0.185173 67.3168 0.299422 68.0349 1.44641C68.7034 2.52076 69.2941 3.64156 69.8025 4.80023C71.4689 8.61773 74.0836 11.5044 77.9499 13.136C78.4624 13.3556 78.6472 13.251 78.7901 12.627C79.191 10.706 79.5711 8.79204 79.965 6.86412C80.2718 5.35107 80.5507 3.83801 80.8958 2.33193C81.2758 0.69686 82.6041 -0.146824 84.152 0.18786C85.0201 0.37612 85.3548 0.742182 85.3548 1.63816C85.3551 2.19901 85.2991 2.75847 85.1875 3.3081C84.4089 7.14535 83.614 10.9861 82.8028 14.8303C82.2102 17.6647 81.5896 20.4921 80.983 23.3229C80.9236 23.4999 80.8804 23.682 80.854 23.8668C80.8261 25.1567 80.1742 26.0632 79.1283 26.7395H76.8692C76.036 25.8191 76.2033 24.7453 76.4264 23.682C76.8239 21.7611 77.2631 19.8471 77.6641 17.9296C77.8209 17.1626 77.6641 16.9116 76.9494 16.6327C74.7646 15.7758 72.7263 14.5843 70.9076 13.1011C68.8947 11.5241 67.2931 9.48352 66.2395 7.15348C66.1144 7.43382 66.0095 7.72276 65.9257 8.01808C65.4202 10.4899 64.9461 12.9651 64.4336 15.4334C63.82 18.4072 63.1332 21.3601 62.5684 24.3479C62.4958 24.8313 62.3223 25.2941 62.0593 25.7061C61.7962 26.1181 61.4494 26.4702 61.0414 26.7395H58.7823Z" fill="#C30B32"></path><path d="M32.2168 26.7404C31.9728 26.6149 31.7218 26.5068 31.4917 26.3674C31.2355 26.2429 31.0316 26.0319 30.9161 25.7715C30.8006 25.5112 30.781 25.2184 30.8606 24.945C31.652 21.2913 32.4434 17.6237 33.2069 13.9806C33.9251 10.55 34.6014 7.11255 35.3196 3.67854C35.4626 2.98128 35.6683 2.32237 35.8251 1.63906C36.0483 0.64895 36.7699 0.303806 37.652 0.174813C37.8841 0.157875 38.1171 0.157875 38.3492 0.174813H54.8777C55.1603 0.162571 55.4433 0.16956 55.7249 0.195731C56.5268 0.303806 57.231 0.833724 57.2414 1.45429C57.2504 1.78265 57.1718 2.10747 57.0137 2.39543C56.8556 2.68338 56.6238 2.92409 56.342 3.09285C55.7362 3.45977 55.0341 3.63592 54.3269 3.59836C50.0876 3.59836 45.8482 3.59836 41.6124 3.59836C39.8692 3.59836 39.8692 3.59836 39.4962 5.34151C39.2103 6.67328 39.2103 6.68722 40.5177 6.69071C44.4293 6.69071 48.3374 6.69071 52.2456 6.69071C52.9939 6.70647 53.7378 6.80825 54.4629 6.99402C54.6389 7.02951 54.8047 7.1042 54.948 7.21256C55.0912 7.32091 55.2082 7.46013 55.2902 7.61989C55.3723 7.77965 55.4173 7.95584 55.4219 8.13538C55.4266 8.31492 55.3907 8.4932 55.317 8.65698C54.9684 9.38213 54.4629 10.0236 53.546 10.0759C53.1241 10.1038 52.6988 10.0933 52.2735 10.0933C48.0899 10.0933 43.8982 10.0933 39.6984 10.0933C38.4538 10.0933 38.4155 10.1247 38.1784 11.2438C37.4253 14.8068 36.6758 18.3733 35.9297 21.9433C35.8426 22.3512 35.8251 22.7765 35.7659 23.2716C36.1842 23.2716 36.5956 23.3238 37.0105 23.3238C41.1568 23.3238 45.3009 23.3238 49.4426 23.3238H50.4327C51.6111 23.3238 52.2735 23.7422 52.392 24.5092C52.521 25.3529 51.8551 26.1443 50.7535 26.4789C50.5884 26.5491 50.4307 26.6356 50.2828 26.7369L32.2168 26.7404Z" fill="#C30B32"></path><path d="M97.679 26.5865C97.4385 26.461 97.1875 26.3529 96.9539 26.2135C96.6982 26.0885 96.4947 25.8773 96.3793 25.6172C96.2639 25.357 96.2439 25.0645 96.3229 24.7911C97.1177 21.1374 97.901 17.4814 98.6726 13.8232C99.3908 10.3961 100.067 6.95863 100.782 3.52463C100.925 2.82737 101.13 2.16846 101.287 1.48514C101.51 0.495032 102.232 0.146402 103.128 0.0174084C103.36 0.00200969 103.593 0.00200969 103.825 0.0174084H120.354C120.636 0.00571431 120.919 0.011536 121.201 0.0348399C122.02 0.135943 122.718 0.66586 122.718 1.28294C122.726 1.61203 122.647 1.93739 122.488 2.22585C122.329 2.51431 122.097 2.75555 121.815 2.92498C121.209 3.29071 120.507 3.46676 119.8 3.4305C115.56 3.40958 111.324 3.4305 107.085 3.4305C105.342 3.4305 105.342 3.4305 104.969 5.17365C104.687 6.50541 104.687 6.51936 105.994 6.51936C109.902 6.51936 113.81 6.51936 117.718 6.51936C118.467 6.53488 119.211 6.63665 119.936 6.82267C120.111 6.85845 120.277 6.93312 120.419 7.0412C120.562 7.14927 120.679 7.288 120.762 7.44718C120.844 7.60637 120.889 7.78196 120.895 7.96106C120.9 8.14017 120.866 8.31822 120.793 8.48215C120.445 9.21078 119.939 9.85226 119.019 9.90456C118.597 9.92896 118.172 9.92199 117.746 9.92199C113.563 9.92199 109.372 9.92199 105.175 9.92199C103.926 9.92199 103.888 9.95685 103.651 11.0725C102.898 14.6401 102.148 18.2078 101.402 21.7754C101.319 22.1833 101.298 22.6051 101.239 23.1037C101.657 23.1037 102.072 23.156 102.483 23.156H114.915C115.264 23.156 115.574 23.156 115.905 23.156C117.087 23.156 117.75 23.5743 117.865 24.3413C117.994 25.185 117.328 25.9764 116.226 26.3111C116.061 26.3813 115.903 26.4677 115.756 26.5691L97.679 26.5865Z" fill="#DFDFDF"></path><path d="M87.8895 26.7399C87.0772 26.1507 86.6902 25.5232 86.9656 24.3797C87.7918 20.9317 88.4508 17.4454 89.1724 13.9731C89.9673 10.1382 90.7726 6.30322 91.5501 2.46829C91.9336 0.575232 93.356 -0.320747 95.1863 0.20917C95.4186 0.260293 95.629 0.382995 95.7878 0.559993C95.9467 0.73699 96.046 0.959365 96.0718 1.19579C96.1222 1.60997 96.1117 2.02929 96.0405 2.4404C95.4757 5.22944 94.8795 8.01848 94.2973 10.8075C93.3839 15.191 92.474 19.5756 91.5675 23.9613C91.3339 25.0979 90.9086 26.1054 89.8697 26.7504L87.8895 26.7399Z" fill="#C30B32"></path><path d="M159.979 8.87619C159.979 11.0865 159.927 13.3003 159.996 15.5002C160.038 16.8424 159.679 17.4699 157.992 17.4455C153.62 17.3828 149.248 17.4281 144.873 17.4246C143.13 17.4246 142.739 17.0481 142.722 15.2561C142.697 12.9064 142.722 10.5566 142.722 8.20334C142.722 6.27541 142.722 4.34749 142.722 2.41956C142.731 2.00305 142.804 1.59041 142.938 1.19587C143.02 0.870913 143.216 0.586356 143.491 0.39429C143.766 0.202224 144.1 0.115497 144.434 0.149983C145.232 0.18136 146.034 0.149983 146.832 0.149983H157.41C157.758 0.149983 158.072 0.149983 158.4 0.149983C159.606 0.230168 159.982 0.606689 159.989 1.799C159.989 4.15226 159.989 6.50202 159.989 8.85179" fill="#C30B32"></path><path d="M138.008 26.4961C137.115 26.4961 136.226 26.4961 135.334 26.4961C134.138 26.4752 133.73 26.1091 133.678 24.9098C133.629 23.8639 133.678 22.8459 133.678 21.814C133.678 21.0644 133.647 20.3114 133.678 19.5618C133.741 18.4253 134.309 17.7734 135.421 17.7385C137.203 17.6792 138.988 17.6723 140.769 17.7385C141.888 17.7803 142.446 18.4358 142.456 19.5618C142.477 21.3422 142.477 23.1248 142.456 24.9098C142.456 26.137 142.09 26.4682 140.839 26.4926C139.901 26.4926 138.96 26.4926 138.022 26.4926" fill="#C30B32"></path></g><defs><clipPath id="clip0_1604_82645"><rect width="160" height="26.7399" fill="white"></rect></clipPath></defs></svg>