<?xml version="1.0" encoding="utf-8"?>
<!-- Generator: Adobe Illustrator 19.2.1, SVG Export Plug-In . SVG Version: 6.00 Build 0)  -->
<svg version="1.1" id="layer" xmlns="http://www.w3.org/2000/svg" xmlns:xlink="http://www.w3.org/1999/xlink" x="0px" y="0px"
	 viewBox="25 249 600 143" xml:space="preserve">
<style type="text/css">
	.st0{fill:#CF0A2C;}
	.st1{fill:#FFFFFF;}
</style>
<g fill="#FFFFFF">
	<path class="st0" d="M30,298.3h45.5c-9.2,18.2-12.4,39.7,2.2,48c7.1,1.4,14.8,1.6,17.2-2.9c2.6-6.5,3-9.6,3.5-19.9H87.8v-8h63.1v8
		h-6.6c-4.6,22.3-4,58.2-25.6,63.8H68.5C27.1,378.6,10.7,332.7,30,298.3"/>
</g>
<g fill="#FFFFFF">
	<path d="M150.8,281.4H43.9c4.7-6.2,17.6-13,28.1-14h84C153.5,271.3,151.4,276.5,150.8,281.4"/>
	<path class="st1" d="M38.4,286.7h44.9c-1.6,1.6-3.4,4-4.8,6.4H33.1C34.6,291,36.6,288.6,38.4,286.7"/>
	<path class="st0" d="M164.5,325.8h20.8c-3.6,3.5-5.8,8.4-5.8,13.8c0,10.5,8.6,19.1,19.2,19.1c10.6,0,19.2-8.6,19.2-19.1
		c0-5.3-2.2-10.3-5.8-13.8h33.6c2.9,5.9,4.5,12.6,4.5,19.5c0,24.9-20.3,45-45,45c-24.9,0-45.1-20.2-45.1-45
		C160,338.4,161.6,331.7,164.5,325.8"/>
	<path d="M236.8,314.1h-63c8.1-7.9,19.4-13,31.5-13C217.4,301,228.7,306.1,236.8,314.1"/>
	<path class="st1" d="M170.7,317.8H240c1.1,1.4,2.5,3,3.5,4.5h-76C168.3,320.8,169.7,319.1,170.7,317.8"/>
	<polygon class="st0" points="477.9,387.2 542.5,387.2 520.7,332 	"/>
	<path class="st0" d="M514.4,298.2h46.1l1.9,4.5l3.5-4.4l23.1-0.1l-17.9,24.6l27.1,64.4h-33.5c-9.1,0-15.3,0-18.3-7.7L514.4,298.2z"
		/>
	<path class="st0" d="M269.8,298.2h45.3l-8.2,49.1h18.6c6.2,0,11.8-4.7,13-10.9l6.1-38.2h44.1l-10.5,59.6
		c-3.1,16.4-17.1,29.4-35.9,29.1l-71.3,0.3c-9.9,0-14.9-8.3-13.1-18.2L269.8,298.2z"/>
	<polygon points="593,263.2 614.6,263.2 622,252.7 601.3,252.7 	"/>
	<path d="M386.1,281.4H272.7l2.3-14h88.7C376.2,269.6,382.2,273.5,386.1,281.4"/>
	<polygon points="553.3,281.4 507.9,281.4 502.4,267.4 547.2,267.4 	"/>
	<polygon points="589.9,267.4 611.4,267.4 601.3,281.4 579,281.4 	"/>
	<polygon class="st1" points="574.9,286.7 597.4,286.7 592.8,293.1 569.9,293.1 	"/>
	<polygon class="st1" points="510,286.7 555.6,286.7 558.4,293.1 512.5,293.1 	"/>
	<path class="st1" d="M344.6,286.7h43c1,2.5,0.5,4.2,0.5,6.4h-42.7C345.4,290.8,345.8,288.3,344.6,286.7"/>
	<polygon class="st1" points="271.9,286.7 317,286.7 315.7,293.1 270.7,293.1 	"/>
	<polygon class="st1" points="449,286.7 447.9,293.1 403.8,293.1 404.8,286.7 	"/>
	<polygon points="408.1,267.4 491.7,267.4 489.3,281.4 405.8,281.4 	"/>
	<path class="st0" d="M447.1,298.2l-2.3,14h31.3l-3.7,21.7h-31.3l-2.5,14.4H478l-6.6,38.9l-65.8,0.1c-9.9,0-16.4-8.4-14.6-18.4
		l11.9-70.7H447.1z"/>
</g>
</svg>
