<?xml version="1.0" encoding="utf-8"?>
<!-- Generator: Adobe Illustrator 28.0.0, SVG Export Plug-In . SVG Version: 6.00 Build 0)  -->
<svg version="1.1" id="Слой_1" xmlns="http://www.w3.org/2000/svg" xmlns:xlink="http://www.w3.org/1999/xlink" x="0px" y="0px"
	 viewBox="0 0 1000 324.3001099" enable-background="new 0 0 1000 324.3001099" xml:space="preserve">
<path fill-rule="evenodd" clip-rule="evenodd" fill="#FFFFFF" d="M581.1484985,244.9173279l39.3131714-108.5338287
	c13.1062012-36.1235657-34.9453125-23.0190659-45.8665161-14.6174622
	c-8.4009399,6.5511932-23.857605,21.336792-29.5696411,36.9616089l-31.2506104,86.189682h-67.8744507l39.3141785-108.5338287
	c13.1035156-36.1235657-34.9452209-23.0190659-45.865387-14.6174622
	c-8.4015503,6.5511932-23.8591919,21.336792-29.5717468,36.9616089l-31.249054,86.189682h-67.7100525l62.5002747-172.2112732
	c21.6748047,0,33.2659302,5.0404434,43.1808472,14.6163559c3.5275574,3.5297546,5.8796997,8.0662689,7.0545654,12.9375305
	c10.0810242-6.2148666,20.6664429-11.7598953,31.5870667-16.465126
	c16.8002319-7.0572891,34.945343-10.9205704,53.2580261-11.2558441c21.6742554,0,33.2658691,5.0405045,43.1776123,14.6174698
	c3.5297241,3.5275955,6.0493774,8.0640488,7.0582886,12.9353714c10.0799561-6.2159805,20.6653442-11.7604218,31.5859985-16.4657135
	c16.7996826-7.05513,34.9452515-10.9200439,53.2590942-11.2559052c21.671936,0,33.2658691,5.0400391,43.1759644,14.6169434
	c9.7493896,9.5765533,9.5791626,27.217041,6.0466919,36.9621964L649.0250854,244.579361L581.1484985,244.9173279
	L581.1484985,244.9173279z M683.4648438,214.0035095L683.4648438,214.0035095l-8.2316895,23.8559875
	c24.3626099,4.7046509,49.0571899,7.0578308,73.9210815,7.0578308c40.1566772,0,56.6217651-4.0319977,77.4567871-14.6174774
	c17.8075562-9.0724945,29.4041748-18.648941,34.4424438-35.2827148c4.3635864-14.1124878-1.1787109-27.5533142-13.9486084-36.122406
	c-12.7693481-8.5680389-25.197998-12.6001587-39.81604-20.6631622
	c-12.9326172-7.0578156-19.8255615-12.4335938-18.9873657-19.8260422
	c1.8474731-15.6259766,18.4829102-20.666893,41.3364258-20.666893c21.8370361,0,43.8518677,2.0173111,65.3552246,5.8823395
	l8.5697021-23.8576889c-24.5297241-4.7051773-49.2313843-7.0572357-74.0952148-7.0572357
	c-40.3205566,0-56.7855835,4.0314713-77.6201172,14.6163559c-17.8081055,9.0725021-29.4046631,18.6495209-34.4435425,35.2833099
	c-4.3700562,14.1130066,1.1722412,27.5548859,13.942688,36.121933
	c12.7692261,8.5680389,25.2050781,12.6000366,39.8224487,20.6641541
	c12.9326782,7.0567627,19.8255615,12.4329529,18.9798584,19.8260498
	c-1.8474731,15.6253815-18.4754028,20.6658936-41.3288574,20.6658936
	C726.9830933,219.8837433,704.9682007,217.8663177,683.4648438,214.0035095L683.4648438,214.0035095z M929.4361572,79.5940323
	L929.4361572,79.5940323l-9.0741577,25.0342255c23.1871338-4.3683243,46.8723145-6.7203827,70.5639038-7.0557175L1000,72.5389633
	C976.3082886,72.8742371,952.7871094,75.2262955,929.4361572,79.5940323L929.4361572,79.5940323z M937.4943237,244.9173279
	L937.4943237,244.9173279h-67.8700562l44.5196533-122.984848c23.3504028-4.3678589,46.8787231-6.7199173,70.5637817-7.0550766
	L937.4943237,244.9173279L937.4943237,244.9173279z"/>
<path fill-rule="evenodd" clip-rule="evenodd" fill="#A7AAAD" d="M267.6413574,55.0649147
	C237.3990479,34.2325172,182.125351,8.5263453,136.0890198,0.1248009C135.5850525,0.0418144,135.0816498,0,134.5771942,0
	c-0.503418,0-1.0078735,0.0418144-1.5123901,0.1248009C88.3743286,8.3575687,33.9375954,33.5599251,1.6800781,55.0649147
	c-1.0078092,0.8403206-1.6782999,2.0174294-1.6782999,3.1928482c-0.1692433,66.1955566,11.7603045,118.2786102,28.05616,157.256424
	c10.5854149,25.0337524,27.7236595,53.9317932,50.4041595,74.2596741
	c15.9611359,14.7861633,34.6106262,26.3793945,54.7709045,34.2747803c1.009491,0.3352966,2.0157623,0.3352966,3.0235901,0
	c20.3305969-7.8953857,38.8114319-19.4886169,54.7719879-34.2747803
	c22.8497467-20.3278809,39.9858246-50.570755,50.4019623-74.2596741
	c18.4824829-44.8574677,28.394165-97.4450531,28.0588989-157.256424
	C269.4894409,57.0823441,268.8168335,55.9052353,267.6413574,55.0649147L267.6413574,55.0649147z"/>
<path fill-rule="evenodd" clip-rule="evenodd" fill="#E30518" d="M234.3749237,212.1547852
	c-7.5585785,17.4713745-24.0236511,49.8986206-48.386261,71.5723267
	c-14.6169434,13.60849-31.5870056,24.5291748-50.0667572,32.0893555c-0.3357697,0.1681519-0.6731415,0.1681519-1.0089417,0.1681519
	c-0.3357697,0-0.8386536,0-1.1749573-0.1681519c-18.483017-7.7288818-35.4525223-18.4808655-50.0689087-31.9223328
	c-19.1534576-17.3053284-36.2889862-42.8423157-48.5538673-71.7393494
	C16.9701977,169.3130646,8.2339621,119.4128647,7.8988047,62.1227341c0-1.0089188,0.5017729-1.8481255,1.1748915-2.3520012
	C46.0359192,35.7438507,95.9345093,14.7422686,134.0743103,7.6866112h1.0078888
	c17.8081818,3.5275364,35.2800446,8.5685101,52.0819855,15.1213436
	c25.7051544,9.5764942,50.4030304,21.8408489,73.4198303,36.6248169c0.8419189,0.5044594,1.177124,1.3441925,1.177124,2.1855049
	C261.5924377,118.2362213,252.519928,168.1353607,234.3749237,212.1547852L234.3749237,212.1547852z"/>
<path fill-rule="evenodd" clip-rule="evenodd" fill="#FFFFFF" d="M181.2828674,71.5305099
	c1.1776733,0.1687775,2.3536987,0.3358002,3.5297546,0.6710205c1.3441925,0.8419495,1.3441925,2.6894913,2.1844635,4.2002411
	c-5.2097321,0.8402634-6.8891602-2.8565216-9.4099426-5.7109375
	C178.4285126,70.690834,179.7726746,71.1952972,181.2828674,71.5305099L181.2828674,71.5305099z M77.789444,197.5379639
	L77.789444,197.5379639c-14.2795067-19.321701-17.1360283-44.8581085-7.5601501-66.8686676
	c20.666893-50.4020233,76.4440308-36.6242294,81.8197479-34.6096039c-0.1670837-4.7052383,3.1923218-8.7372894,7.8970032-9.5770264
	c1.3441925-0.3346863,2.8565826-0.3346863,4.2018433-0.1692429c0.3347015,0,0.6693878,0.3385468,0.3347015,0.3385468
	c-5.3762512,1.3441925-9.4077759,4.2001877-9.2412262,9.2390594c0.1697693,4.7041245,5.0410004,8.0656281,9.0746918,8.905365
	c1.8486633,0.3358536,3.8633728,0.1687698,5.5433044-0.8397369h0.1676331
	c0.6726532-0.5044556,1.3447266-0.8402023,2.0174103-1.0083313c1.6793976-0.5044632,3.3588715-0.6732407,5.0398865-0.1687775
	c0.5028534,0.1687775,1.344223,0.841423,2.1833649,0.841423c0.5050201,0,1.3453369-0.841423,2.015213-0.841423
	c3.1923523-0.1670227,10.2501984,2.3526993,10.4183655,4.0336914c0.1670837,1.1754684-1.681076,2.519722-2.6894989,3.3589325
	c-1.0067902,0.8402023-2.1844482,1.5128555-3.5270081,2.0168457c-0.3352509,0.1670837-0.1676331,0.1670837,0,0.1670837
	c5.5438538-0.6710739,15.6248016-4.3673935,14.1124573,2.5213013l-0.5050507,1.5117416c0,0,0,0.1671448,0.1697998,0.1671448
	c5.5444031-1.8481903,7.2243805-6.7193375,6.3835907-13.2727509c0-0.1670837-0.1687164-0.1670837-0.1687164,0
	c-0.5050201,0.8402023-1.1749573,1.5128555-1.8480988,2.0168457c0-1.8481827,0.1686859-4.5359879-1.0068207-5.8796539h-0.1681824
	c0.5034027,2.688385-1.1754608,5.3756638-3.6968231,6.2148132c-1.8475647-3.3604584-4.2007141-6.5522537-6.7204285-9.4076614
	h-0.1681366c0,1.0089798,0,2.1838684-0.3352509,3.1928482c0,0-0.1692352,0.1665573-0.1692352,0
	c-0.6704712-1.8481903-2.3520966-3.0258255-4.199646-3.1928482c-1.3453217-0.16819-2.6889648,0.1670227-4.1991577,0
	c-2.0173645-0.336853-4.2012939-1.6810455-4.3694305-3.1917953c-0.1670837-2.3520584,4.2001801-3.5298157,6.3835602-4.0320587
	c0.6737366,1.3441391,1.1776581,2.6878662,1.5129395,4.1991425c0,0.168129,0.16922,0.168129,0.16922,0.168129
	c2.5191345-2.3520584,5.8801727-3.6968384,9.2390594-4.0321121c1.0089417,0,3.1917572,0.3352737,3.5297241,1.0089798
	c0.8397369,1.6794662-1.1776733,3.5276566-1.8476105,4.1986694c-1.1776276,1.1770554-0.673172,1.0083923-0.5050049,1.0083923
	c3.0230713-1.1749496,5.7114868-3.0231323,7.8943024-5.2070618c1.3447571,2.3499603,2.0173798,5.2070618,1.6821289,7.8949203
	c0,0,0,0.168663,0.1670837,0.168663h0.1681671c2.688385-3.0230789,2.857132-7.5595932,2.5196991-12.7682343
	c2.6900482,0.8391495,4.8733826,2.5192032,6.7215118,4.7046509c0.1670837,0.1670837,0.3352509,0.1670837,0.1670837,0
	c-1.5107117-2.6878586-3.6967773-4.8738327-6.2159576-6.55336c-1.0084229-0.5034103-2.0163116-1.0078659-2.8559875-1.6799316
	c-0.6716003-0.6721268-1.5113068-2.8555298-2.3537292-3.0247116c-1.1743927-0.1671448-2.5180817,1.0083923-3.8622589,1.1771088
	c-2.3526459,0.1664963-3.5270386-1.5123291-4.0320435-3.696312c-5.7136536,1.6788788-7.8970337-1.8480682-9.0725403-6.0494308
	l-0.5033722-2.5190811c-0.5044861-1.0074005-2.6889496-2.0169067-3.8650055-2.5208359
	c-1.6799622-0.6715469-3.5286407-0.8397369-5.3756866-0.6715469c-1.5145569,0.5050507-3.1928558,0.8403244-4.7057648,1.1754761
	c-4.703064-0.1680756-9.2390594-1.5128479-13.1040649-3.8628082c-10.9211426-5.8818169-20.665802-13.9463921-28.5606079-23.5223045
	c-0.3385162-0.3363228-0.3385162,0-0.3385162,0.1687202c5.2097473,12.0955772,14.1129761,22.3446655,25.5380859,29.0651093
	c-12.4319-3.1923828-23.8570099-8.9038467-33.9363022-16.969532c-0.1698303-0.167141-0.505043-0.3352165-0.1698303,0.1686592
	c4.5365448,5.879715,9.7457047,11.0893478,15.6253586,15.6253357l0.1692505,0.1670837
	c-8.4009857,3.3605728-20.8345337,4.7047043-30.9154816,7.0578766c-0.5039368,0.1659698-0.5039368,0.3352127-0.1670532,0.3352127
	c5.8801804,0.3352203,11.7603607,1.1744308,17.4724045,2.352066h-0.1670761
	c-22.8491898,0.8392639-42.6763763,7.5595856-56.4508972,20.3284073c-0.168663,0.1692963,0,0.3374939,0.1665573,0.1692963
	c3.3610077-1.5134354,6.7193604-2.688385,10.080925-3.6973648c-3.3615646,3.1923828-6.8886032,6.3846436-9.9116821,9.7451553
	c-4.5365448,5.0409775-6.5539131,4.7030106-8.7378426,1.1760635c-1.679409-1.8486557-1.679409-7.7288361,0.6720963-8.9038467
	c2.8560257,0.8392105,4.7041817-1.5128479,4.3689384-4.2012405c-0.5044937-3.6957245-4.7047081-6.2170868-7.2238503-7.8960342
	c-0.3379631-0.1692429-0.5044594-0.1692429-0.3379631,0c1.3458595,1.3431473,3.1928749,2.6873932,3.5297585,4.7047653
	c0.1670532,0.8391495,0.1670532,2.352005-0.6726532,2.6878662c-1.344223,0.3352127-2.0157356-1.0095673-3.3588791-0.8403244
	c-1.1771088,0.1670837-1.6821251,2.1839294-1.8486519,3.5275955c-0.3379593,1.6799393-0.3379593,3.3610382-0.3379593,5.2091064
	c0,0.8403244,0.3379593,2.1839905-0.3352165,2.85495c-0.8397331-0.3352203-1.0078964-1.3435516-1.3431129-2.1839294
	c-1.8492355-2.8565216-2.688942-6.3841171-2.5202255-9.9122391c0.5028267-0.168129,1.5112495,0,2.0151825-0.3351593
	c-0.1665268-2.1855621-1.1754761-4.3694839-2.8565521-5.7126312c-2.349926-2.1838684-5.5433273-3.0241241-8.5685959-2.3531113
	c-0.1665001,0-0.1665001,0.1692429,0,0.1692429c2.1844826,0.3352203,6.2186699,0.8392105,6.3846703,2.8560562
	c0,0.8396759-1.0084229,2.0152054-1.3431129,2.688385c-1.1765556,4.0320587-0.3362961,8.2321854,2.1822929,11.5911179
	c1.1776924,1.5128555,2.688942,2.857048,1.6827087,5.5443268c-1.3447495-0.3352127-2.5218887-0.8390884-3.5303116-1.5123291
	c-1.6788826-0.6704865-3.023632-1.846489-4.1985512-3.1917953c-0.8424225-1.5107498-0.8424225-3.1922607-2.0173721-4.3683167
	c-3.1918221-3.5275421-8.2317734-4.7041855-12.6000977-2.8559952c-0.1676369,0-0.1676369,0.1686554,0,0.1686554
	c3.5280914-0.1686554,6.7209969,0.1687164,8.0635834,2.5192032c0.6741982,1.3441925,1.0094757,2.8571014,1.175972,4.3694305
	c0,0.6710205-0.1664963,1.5123291,0.1687202,2.015213c0.5045166,1.0078659,2.3520889,0.8413086,3.3615913,1.343605
	c1.3431129,0.8413696,2.1822929,2.8571625,3.6951752,4.2008286c0.3363228,0.337326,0.8397331,0.6726532,1.3447456,1.0078735
	c2.3499031,1.3446579,7.2238197,2.5223541,9.0725021,4.3683167c2.8543892,2.8559952,1.3431435,7.72995,0.335247,10.9222641
	c-1.3441925,3.3589401-2.0168152,6.8864136-2.1839294,10.4162292c0,0.1670837,0.1671143,0.3352203,0.1671143,0.1670837
	c2.689991-3.0236664,5.7136536-5.7115173,9.2406654-7.8953934c-3.3588486,7.0550766-6.2159538,14.4481735-8.2317467,22.0078201
	c-1.8486519,6.8886261-4.703598,18.3126068-0.3362961,24.8660278c0,0.1692505,0.1692429,0.1692505,0.1692429,0
	c0.3352432-2.1839294,0.3352432-4.7047577,1.8481255-5.7131042c4.366745,12.0972137,11.5911522,23.0184326,21.1686668,31.5864716
	C77.789444,198.0423737,77.957634,197.8731842,77.789444,197.5379639L77.789444,197.5379639z"/>
<path fill-rule="evenodd" clip-rule="evenodd" fill="#FFFFFF" d="M107.8630066,138.901474
	c32.7630463,9.5776062,61.1560974-10.5842438,67.0357513-17.9758148c1.0078583-1.1771088,0.673172-1.343605-0.3352509-0.6720047
	c-4.8717194,4.0314713-10.2474518,7.2232056-15.9611053,9.911644c-23.8581238,11.7619476-49.0582962,5.5443878-49.7315292,4.0342865
	c-0.670433-1.1777649,1.6794662-1.0089874,1.6794662-1.0089874c51.0751648-1.6816254,61.1560974-24.0268784,60.9895325-24.8666077
	c0-0.8402023-0.8402252,0.1692963-0.8402252,0.1692963c-13.2727203,17.3046875-47.7157669,19.1528778-47.7157669,19.1528778
	c-9.0719757,0.8392029-16.4655914-0.6737671-21.00103-4.8717957c-1.1760559-1.1775742-2.0152054-2.5207138-2.6884155-4.0341568
	h-0.1681595c-0.6715469,1.3442001-1.6794128,2.5213089-2.688942,3.6961975
	c-1.1744003,1.5129166-3.022522,2.1839294-4.1980286,1.3442535c-3.6962814-2.5191422,6.2154236-16.6320953,14.1124496-22.8491821
	c0.3362961-0.3363266,1.5112534-1.3441925,0.8402634-1.0067596c-17.3047714,7.2238464-30.2417526,22.1765289-34.9474792,40.4897232
	c-1.5107498,5.3756714-2.1828461,11.0893555-2.1828461,16.6320953c0,5.7125702,0.6720963,11.4245605,2.0162582,16.9695282
	c2.0146866,8.904953,5.3757248,17.4730072,9.7435455,25.3705444c0.3363266,0.5011902,0.3363266,0.1665039,0.5034103,0.1665039
	c1.1771088-2.1839294,2.186615-4.5359802,2.8571014-7.0557098c0.6731796-2.8559418,1.6794128-5.7131042,2.8571091-8.4009705
	c3.1917648-5.2070007,20.1613235-3.8628082,15.4560623-7.3930206c-1.3430862-1.0062408-2.688385-2.1834106-3.8655014-3.5275421
	c-2.3499298-2.5191498-4.5359879-5.2092285-6.5506668-8.0641632c-4.3694305-5.8790741-7.0567398-12.9363708-7.5623398-20.3299866
	c0-0.3352814,0.1697998-0.3352814,0.3385162,0c3.6935654,10.5854034,11.5916748,19.1529236,21.6726303,23.8575134
	c5.5449066,2.3531799,11.2558441,3.8661499,17.135498,4.5366364c0.505043,0,0.505043-0.1687164,0-0.1687164
	c-12.6000977-2.85495-25.2001648-11.4240417-30.4087753-21.6721344c0,0-2.1839523-3.3610382-0.8397293-4.0320587
	c1.3436356-0.6725922,3.527565,2.1839905,5.7114639,4.2008362c4.5381775,4.0325775,10.080925,7.2238464,15.9611588,8.903717
	c8.905426,2.5208435,18.3126526,2.6879272,27.3856964,0.6738281c0.3379364,0,0.3379364-0.1693115,0-0.1693115
	c-7.8959351,0.8392181-15.9616852,0.1693115-23.5212784-2.1843872
	c-15.2873993-5.8796539-19.8255768-13.4409332-18.6489944-14.785141
	c1.5139923-1.6793976,19.3227005,15.2901306,48.3873138,2.5207214c6.0488739-2.6877441,11.5921936-6.2169647,16.6321564-10.4183197
	c0.3379211-0.3352203,0.1681213-0.6710205,0-0.5017853c-9.7430267,5.206543-19.1529388,10.5827942-33.4318848,11.4252167
	c-8.7367325,0.50177-17.4751053-1.6816254-25.0342255-6.0494232c-1.1771088-0.839798-1.681572-1.3441925-1.1771088-1.8481903
	C106.3517532,138.2315674,107.8630066,138.901474,107.8630066,138.901474L107.8630066,138.901474z"/>
<path fill-rule="evenodd" clip-rule="evenodd" fill="#FFFFFF" d="M223.2860718,188.2972717
	c-1.5101929,1.0089264-3.1923218,1.3441925-5.0399323,1.175415c-1.3447418-0.1664886-2.6889343-0.1664886-4.032608,0
	c-0.3352051,0-0.5039368,0.1687775-0.6704559,0.3374329c-2.3526154,2.1834106-3.6967773,1.1744843-3.5302887-0.3374329
	c0.1687164-1.175415,0.3384857-2.3531647,0.8413391-3.5285797c1.1760712-1.8476715,2.015213-3.8628235,2.8554688-6.0484314
	c0.3374176-1.8486633-0.1665192-3.6967316-1.0089111-5.3756714c-0.3352814-0.8396759-1.5102234-4.0320587,2.5218353-3.8632812
	c0.5044861,0,1.0078583-0.1687775,1.3431091-0.5045166c2.8571014-2.1855621,4.3683472-5.5439148,4.2012939-9.0708618
	c0-0.1693115-0.1681671-0.3385468-0.1681671-0.1693115c-0.8402557,1.5123291-2.3526154,2.6867523-3.8644409,3.3605804
	c-1.3431091,0.501709-2.5207825,1.1748352-3.6962891,1.8480682c-0.3373413,0.3358002-0.5033722,0.6710205-0.6726227,1.0057678
	c-1.174942,2.8576202-2.519104,1.6820374-2.687851,1.3446503c-0.8391876-1.5107422-2.1838684-2.8554688-3.6968079-3.8628082
	c-4.5359955-2.5213013-9.7424469-3.526947-14.9521637-3.025177c-2.5196686,0.1681366-5.039917,0.5038757-7.3920135,0.8412476
	c-1.1760254,0.166626-2.3536987,0.3347473-3.359375,0.3347473c-4.7052612,0.1692505-1.5134583-5.2081146,2.3498993-6.2144012
	c2.8576355-0.8424225,6.0488739-0.1692352,8.2322388,1.8459625c0.1692505,0.1687775,0.3379669,0.1687775,0.3379669,0
	c-1.5123596-3.6946106-7.897049-16.8002167-30.410965-14.9526825c-0.3352814,0-0.3352814,0.1693115-0.1670837,0.3374939
	c4.7030792,0.8390961,9.0725403,2.1839294,13.4398041,4.3677979c1.344223,0.6704407,4.0320282,2.6878662,3.3610382,5.543808
	c-1.1771393,2.688385-3.1912689,5.0405579-5.7136536,6.7204285c-2.0146484,0.6738281-4.1985779,0.5045166-6.0461884-0.5038147
	c-4.3700104-2.3527069-7.2265625-6.8892059-7.7288666-11.7604218c0,0-0.1681213-0.3358002-0.1681213,0
	c-1.6800232,7.3930969,2.8559875,14.78508,10.2468872,16.4650116c0.3374329,0.1660309,0.8419037,0.1660309,1.1777039,0.1660309
	c2.1838684,0.5045166,2.0151825,4.3694305,1.511795,6.2180939c-0.5033722,2.1834564-3.8650055,2.3526917-6.3835907,2.01474
	c-2.3526154-0.3358612-4.5370636-1.3441925-6.3846741-2.6878662c-3.0252533-2.3526459-5.5444031-5.2075806-7.5617981-8.3988037
	c-0.334671-0.5044556-0.5039062-0.5044556-0.334671,0c1.8470459,4.5359955,4.8712158,8.5674591,8.9032593,11.4246216
	c4.872879,3.6956787,10.9211884,5.5443268,17.1382446,5.040451c4.0315094-0.3385468,7.895401-1.1776276,11.760376-2.5218201
	c0.3347168-0.1665649,0.3347168-0.3353424,0-0.3353424c-5.2097015,0-11.760376,0-13.1050873-3.5280609
	c-0.5028839-1.1771698-0.8397369-6.2176208,1.8492126-6.0488434c3.6962738,0.1691895,7.5590515,0,11.2558746-0.6726532
	c3.5270386,0,7.0567627,0.5038757,10.4156342,1.6815186c2.5218964,0.8392029,4.5365448,2.3527069,6.0494232,4.5365753
	c2.6873169,3.8627472,2.0146942,10.5843506,1.0089569,16.1271057c-1.0089569,4.7052307-2.5218353,9.2406311-4.371048,13.7772675
	c-3.526474,8.9054108-10.750885,22.5139008-16.4645386,27.5549316c-7.3909302,5.7108917-16.1276398,9.7424164-25.3688812,11.7603149
	c-4.2002106,1.174942-8.5674896,1.8475952-12.7682343,2.0168457c-10.2490845,0.50177-18.4829941-1.0089874-23.8586884-5.7135773
	c-2.6878891-2.5197144-4.5354614-5.5444336-5.8796539-8.9039001c-1.6799622-8.2321777,2.8565521-10.5843048,13.945343-7.2259521
	c3.5292053,1.0083923,5.7114868-2.0151978,8.4004669-2.1833344c1.3430786,0,2.3525848,0.8396759,3.5275574,0.5034027
	c0.8418732-0.1681824,1.5123596-1.678421,2.1849823-2.6873322c0.6715698-1.0085144,1.5112762-1.8481903,2.5196991-2.5191956
	c3.1917725-1.8487244,6.55336,0.3352051,8.7362061,1.6793976c0.16922,0.1660309,0.3363342,0,0.3363342-0.1687164
	c-3.1928864-4.2012329-8.9049377-5.5448456-13.7772217-3.5279999c-1.0067749,0.5044556-2.0163116,1.8481293-3.192337,2.688324
	c-2.3504333,0.8396759-4.8712463,1.1744232-7.2238617,0.6727142c-0.8402557,0-1.8475647,0.1669617-2.5196686-0.3374939
	c0.6721039-3.3588257,3.8628235-3.3588257,6.2154388-4.8717346c3.8654938-1.8487091,6.3846283-5.7115173,6.8880768-9.9116516
	c0-0.673233-0.1676483-1.51297,0.3368225-2.1839752c0.5028534-0.6731873,1.6805115-0.6731873,2.8560181-0.5044098
	c1.511795,0.3352203,3.1917725,0.8396759,4.535965,1.5106354c0.3352661,0.1692505-0.5039062-0.6709595-0.8396759-1.0062256
	c-4.3667755-3.5297546-12.4335785-1.8480682-14.2811432,2.01474c-0.3358002,0.6737061,1.5129089,0.6737061,1.6815948,1.5134277
	c0.1659698,0.8390961-1.1776581,2.1838684-1.8481598,2.8559418c-1.5134277,1.6800537-3.3615875,3.0237122-5.2097168,4.1991425
	c-1.0078888,0.6726532-1.8475647,1.6810913-3.0225525,1.6810913c0.6704941-1.8476562,1.6778412-3.6962433,2.8533325-5.2092133
	c0.6742401-1.3430939,2.3536682-4.8711548,1.5134125-6.2153473c-0.6715698-0.8397827-3.5280914-0.3374329-3.8633347-1.51297
	c-0.33741-0.8392029,0.3352432-1.8480682,0.8397293-2.3520508c1.6794128-1.3441925,3.6973724-2.3526001,5.8812408-2.6878662
	c0.3352356,0,0.1681824-0.1691895-0.1697693-0.1691895c-3.8622589,0.1691895-9.9116821,1.5128632-11.4251251,4.3699036
	c-1.0084152,1.6795197-0.5034027,4.0315857,1.3442001,5.0405579c0.3379288,0.1664429,0.6731415,0.3346405,1.0089722,0.3346405
	c0.8396759,3.0236511-0.8397293,8.2328186-4.7052612,8.7378693c-5.2075272,0.6699066-9.0719757-2.8571625-6.8869934-11.9296722
	c0,0,0-0.3357391-0.1676102-0.1686554l-0.505043,0.5038757c-0.3357697,0.3380127-0.5044632,0.673233-0.8396759,0.8392029
	c-3.527565,3.1928558-11.2559052,8.066864-17.8097916,4.8739624c-1.3431396-0.6726074-2.3521194-1.6811066-3.0220261-3.0247803
	c-3.1923447-6.8868713,4.0315018-11.7608795,9.4066696-10.7523804c2.3531418,0.3362732,4.3683777,2.0173187,4.0320587,4.5365143
	c-0.5039368,1.6794128-2.0168457,2.8565216-3.8628159,2.688385c-1.1776657,0-2.186615-0.5044556-3.1923523-1.1755219
	c-1.0094681-1.0089874-1.1771088-2.0168457-1.3452377-1.6810455c-1.8465271,8.0656738,9.4088211,7.5606995,13.2726898,3.6956635
	c4.0331345-3.3587646,4.8734207-9.2384796,2.0168457-13.6079102c-2.0168457-2.8571625-5.5449371-4.2007751-9.0719528-3.8638611
	c-3.5275955,0.1670227-7.058403,1.175415-10.2496719,2.8554077c-3.0235977,2.352066-3.6968079,6.8886414-4.5370636,10.7535553
	c-0.67099,3.8628082-2.3515091,7.3926239-4.8712082,10.2475739c0,0.1686554,0,0.1686554,0.1686859,0.1686554
	c1.8486862-0.1686554,3.5281219,0.5045166,4.7025223,1.6799927c2.5218887,2.352066-1.8486862,0.5038757-4.7025223,2.1833344
	h-0.1686859c-5.7136536,3.6963196-9.4077454,9.9143982-9.7457047,16.6332703c0,0.336319,0.16819,0.673645,0.3379593,0.336319
	c2.0152054-2.688385,4.8712311-4.8717804,8.0635223-5.8802338c2.5191727-0.6709595,5.0410309-1.6799316,7.3930969-2.8565826
	c0.83918-0.5027618,1.344223-1.5112762,1.5101929-2.3508911c0.5050125-2.1855621,2.6878586-2.5214233,2.5218582-0.5039978
	c-0.1692429,3.0230865-2.3520584,5.3757324-1.0089798,8.9033203c1.3447495,3.6967316,5.2097244,5.3761902,8.5686035,7.5617523
	c0.6720963,0.50177,2.5213013,2.0146332-2.6878357,3.6946869h-0.3357697c-0.1687164,0-0.1687164,0.1681213-0.3352737,0.1681213
	c-0.168663,0-0.168663,0-0.3384857,0.1691895c-4.8712387,3.1918488-7.89431,8.3993225-8.23172,14.1124268
	c0,0.3358612,0.1687164,0.5050964,0.1687164,0.3358612c1.6788864-2.3531799,4.0315018-4.0321198,6.8886032-5.040451
	c2.1839294-0.6710205,4.2002182-1.51297,6.2154312-2.5191956c0.6737289-0.5045319,1.0083923-1.0084076,1.1776352-1.8480835
	c1.5102234-4.2007599,2.8543854-2.3531647,3.0231094-1.0084991c0.1692429,1.3441925,0.6726456,2.6873322,1.3447418,3.8628082
	c1.6788864,2.6894989,5.7136612,2.3527069,9.5759125,3.0258789c1.3441925,0.1670227,2.8565521,1.3441315-0.3352127,3.0230713
	c-0.3352737,0.1686096-0.6732101,0.3356934-0.8397369,0.6737061c-3.8649673,4.0308838-5.7136536,9.5759277-4.7047043,15.1203003
	c0,0.3357849,0.16819,0.5028076,0.3352432,0.1671448c1.1765594-2.5191956,3.0252686-4.7047119,5.377327-6.2155151
	c1.8465271-1.0083313,3.6946487-2.1838684,5.2080841-3.6961975c0.5028839-0.6731873,0.8386536-1.3448486,0.6726532-2.1839294
	c-0.1697693-4.0321198,2.0146866-3.3610382,2.6878662-2.3526459c1.1743927,1.848175,2.0146484,3.8633881,4.3667145,4.7047577
	c2.017395,0.3356934,4.2007751,0,6.0489197-0.8413696c1.513443-0.336319,2.8570862-0.6716614,4.3683319-0.8397369
	c2.5207977-0.3357391,1.6811066,2.0167999,0.3369141,3.6963348l-0.1681671,0.1685791v0.1670837
	c-0.1687469,0.1687927-0.1687469,0.3369141-0.3358002,0.5039978c-1.8486633,4.3694458-1.513443,9.4093628,1.0078583,13.441925
	c0.1676178,0.3352356,0.3368835,0.3352356,0.3368835,0c0-2.3525696,0.838623-4.7052307,2.352066-6.5532837
	c1.1738739-1.3442078,2.1828461-2.8571777,3.0231018-4.5360413c0.1681671-0.5045166,0.1681671-1.0090027,0-1.3442078
	c-0.1687164-0.3352661,0,0,0-0.1686707v-0.1665955c-1.3447418-3.865509,0.6726227-4.3693848,2.352066-3.865509
	c2.8571014,1.0084534,5.8796539,1.0084534,8.7367554,0c2.352066-1.0083923,4.3667145-2.5190887,6.2159271-4.2012329
	c1.6794739-1.678894,3.5275726-3.1912689,5.7136841-4.366806c1.5096436-0.5044556,2.3498993,0.3358612,2.0151825,3.0236053
	c-0.1686859,0.6732941,0,1.1771698,0.1681519,1.6816254c1.8486938,3.8628082,5.5444183,6.5511932,9.7429962,7.3926239
	c0.3379974,0,0.3379974,0,0.1692505-0.1687622c-1.5123596-1.5128784-2.688385-3.3610535-3.0236053-5.5449829
	c-0.3374329-1.6788788-0.6732025-3.1917267-1.344223-4.7046356c-0.1686554-0.1665039-0.3379669-0.5039368-0.5033722-0.6705017
	l-0.16922-0.1697693c-0.1687469-0.1660309-0.3352814-0.1660309-0.5050812-0.3352051
	c-2.6872711-1.5123291-1.6777954-3.5275421,1.0090179-4.2001953c5.5449066-1.1755981,11.7603302-2.5191498,14.6174316-6.2160339
	c1.5123596-2.5213165,2.5196991-5.2085876,2.8570709-8.0651093c0.503418-2.5202484,1.1749878-5.0384064,2.0147247-7.39151
	c0.3352051-1.0083923,0.6726227-3.8649139,5.0398865-0.3373871c0.5050507,0.5044708,1.0089569,0.6731873,1.6794739,0.8418427
	c4.2012939,0.50177,8.4014893-1.1771088,11.4251404-4.3693695c0.1681671-0.1670837,0.1681671-0.3358612,0-0.3358612
	c-2.0147095,0.5050354-4.1980896,0.5050354-6.2159729-0.3357391c-1.5123901-0.6726532-3.1918335-1.176651-4.7046814-1.5118103
	h-0.6716003c-5.3746185,1.0078125-2.6872711-2.1839142-2.182785-2.8571625
	c1.5101318-2.1838684,3.5275269-3.8628082,5.0398865-6.0494232c1.8481293-3.3588104,3.0241547-7.2238464,3.3588715-11.0866547
	c0.1687012-0.8390961,0.6732178-3.0257111,5.040451-1.6815186c0.1687164,0.1686707,0.3358307,0.1686707,0.6732178,0.1686707
	h1.0062256c3.5297546-0.6710205,6.3852234-2.8565216,7.897583-6.0489044
	C223.4542236,188.2972717,223.4542236,188.2972717,223.2860718,188.2972717L223.2860718,188.2972717z"/>
</svg>
