<?xml version="1.0" encoding="UTF-8"?>
<svg xmlns="http://www.w3.org/2000/svg" width="360" height="360" viewBox="5 18 350 318">
  <title>Phrozen logo - transparent background, white wordmark</title>
  <path d="M 275 23 L 271 20 L 168 20 L 154 26 L 86 106 L 86 111 L 89 113 L 112 114 L 79 154 L 79 160 L 84 164 L 115 165 L 87 197 L 86 203 L 90 206 L 193 206 L 208 199 L 275 119 L 275 115 L 272 113 L 248 112 L 276 80 L 282 71 L 281 66 L 278 63 L 246 62 L 275 27 Z M 264 121 L 209 187 L 195 198 L 96 198 L 144 141 L 215 141 L 230 133 L 242 120 Z M 152 131 L 162 120 L 228 121 L 219 129 L 210 132 Z M 227 120 L 229 120 Z M 152 114 L 118 154 L 93 153 L 126 113 Z M 171 106 L 173 106 Z M 172 105 L 185 98 L 204 99 L 193 106 Z M 268 73 L 234 113 L 207 112 L 216 105 L 243 72 Z M 133 105 L 158 77 L 165 73 L 227 73 L 212 89 L 180 89 L 167 96 L 158 106 Z M 265 28 L 235 63 L 164 63 L 153 68 L 145 75 L 119 106 L 96 105 L 101 101 L 143 49 L 149 44 L 154 36 L 168 27 Z" fill="#ed1651" fill-rule="evenodd"/>
  <path d="M 303 258 L 303 270 L 306 269 L 307 270 L 307 305 L 319 305 L 320 304 L 320 278 L 328 270 L 335 270 L 342 275 L 344 280 L 344 305 L 355 305 L 355 275 L 351 267 L 346 262 L 338 258 L 333 258 L 332 257 L 322 260 L 319 257 L 304 257 Z M 260 260 L 253 267 L 250 276 L 250 286 L 254 297 L 259 302 L 271 306 L 280 306 L 292 301 L 296 297 L 298 293 L 298 290 L 284 290 L 280 295 L 272 296 L 266 292 L 264 287 L 265 286 L 299 286 L 299 274 L 294 264 L 289 260 L 282 257 L 268 257 Z M 265 274 L 270 269 L 278 269 L 283 273 L 284 276 L 283 277 L 266 277 Z M 197 259 L 197 269 L 198 270 L 223 270 L 224 271 L 197 293 L 197 304 L 198 305 L 246 305 L 246 292 L 220 292 L 219 291 L 246 269 L 246 258 L 244 257 L 199 257 Z M 163 257 L 154 262 L 148 269 L 145 278 L 146 289 L 149 295 L 156 302 L 166 306 L 178 305 L 185 301 L 191 294 L 194 287 L 194 277 L 193 276 L 194 275 L 191 268 L 183 260 L 176 257 Z M 167 269 L 175 270 L 179 273 L 182 278 L 181 287 L 174 293 L 166 293 L 162 291 L 157 283 L 159 275 Z M 140 257 L 134 258 L 126 262 L 120 268 L 116 278 L 116 304 L 117 305 L 129 305 L 129 278 L 130 275 L 134 271 L 141 270 L 141 258 Z M 7 257 L 7 270 L 11 271 L 11 334 L 23 334 L 23 306 L 24 305 L 39 305 L 49 300 L 54 294 L 57 288 L 58 283 L 57 274 L 51 264 L 43 259 L 36 257 L 35 258 L 8 258 Z M 23 271 L 24 270 L 38 270 L 40 271 L 46 278 L 45 286 L 40 291 L 36 293 L 24 293 L 23 292 Z M 60 226 L 59 227 L 59 237 L 63 236 L 64 237 L 64 305 L 75 305 L 75 272 L 76 271 L 91 271 L 96 275 L 98 279 L 98 305 L 109 305 L 110 304 L 110 279 L 107 270 L 100 262 L 92 258 L 87 257 L 86 258 L 76 258 L 75 257 L 75 227 L 74 226 L 72 227 L 61 227 Z" fill="#ffffff" fill-rule="evenodd"/>
</svg>
