<svg xmlns="http://www.w3.org/2000/svg" xmlns:xlink="http://www.w3.org/1999/xlink" xml:space="preserve" width="1000.077" height="281.395" viewBox="0 0 3960.305 1913.486"><defs><linearGradient id="b" x1="234.731" x2="273.427" y1="597.781" y2="542.474" gradientTransform="rotate(.023 697580.086 581400.53)" gradientUnits="userSpaceOnUse"><stop offset="0" style="stop-color:#dc5245;stop-opacity:1"/><stop offset=".048" style="stop-color:#da473e;stop-opacity:1"/><stop offset=".177" style="stop-color:#d6252f;stop-opacity:1"/><stop offset=".253" style="stop-color:#d40e2a;stop-opacity:1"/><stop offset=".419" style="stop-color:#d5162b;stop-opacity:1"/><stop offset=".531" style="stop-color:#d62730;stop-opacity:1"/><stop offset=".627" style="stop-color:#d83a37;stop-opacity:1"/><stop offset=".714" style="stop-color:#dc5144;stop-opacity:1"/><stop offset=".795" style="stop-color:#e16c59;stop-opacity:1"/><stop offset=".871" style="stop-color:#e78b76;stop-opacity:1"/><stop offset=".943" style="stop-color:#efae9b;stop-opacity:1"/><stop offset="1" style="stop-color:#f6cec0;stop-opacity:1"/></linearGradient><linearGradient xlink:href="#b" id="g" x1="234.731" x2="273.427" y1="597.781" y2="542.474" gradientTransform="rotate(.023 5183287.16 -1118537.352)scale(4.43364)" gradientUnits="userSpaceOnUse"/><linearGradient id="d" x1="455.759" x2="520.031" y1="273.013" y2="302.983" gradientUnits="userSpaceOnUse"><stop offset="0" style="stop-color:#595959;stop-opacity:1"/><stop offset=".051" style="stop-color:#727272;stop-opacity:1"/><stop offset=".14" style="stop-color:#989898;stop-opacity:1"/><stop offset=".234" style="stop-color:#b7b7b7;stop-opacity:1"/><stop offset=".331" style="stop-color:#cfcfcf;stop-opacity:1"/><stop offset=".433" style="stop-color:#e0e0e0;stop-opacity:1"/><stop offset=".544" style="stop-color:#eaeaea;stop-opacity:1"/><stop offset=".681" style="stop-color:#ededed;stop-opacity:1"/><stop offset=".762" style="stop-color:#eaeaea;stop-opacity:1"/><stop offset=".821" style="stop-color:#e1e1e1;stop-opacity:1"/><stop offset=".872" style="stop-color:#d1d1d1;stop-opacity:1"/><stop offset=".919" style="stop-color:#bbb;stop-opacity:1"/><stop offset=".962" style="stop-color:#9f9f9f;stop-opacity:1"/><stop offset="1" style="stop-color:gray;stop-opacity:1"/></linearGradient><linearGradient id="e" x1="478.768" x2="508.817" y1="326.792" y2="262.35" gradientUnits="userSpaceOnUse"><stop offset="0" style="stop-color:#595959;stop-opacity:1"/><stop offset=".045" style="stop-color:#6c6c6c;stop-opacity:1"/><stop offset=".157" style="stop-color:#939393;stop-opacity:1"/><stop offset=".273" style="stop-color:#b4b4b4;stop-opacity:1"/><stop offset=".391" style="stop-color:#cdcdcd;stop-opacity:1"/><stop offset=".514" style="stop-color:#dfdfdf;stop-opacity:1"/><stop offset=".644" style="stop-color:#eaeaea;stop-opacity:1"/><stop offset=".791" style="stop-color:#ededed;stop-opacity:1"/><stop offset=".828" style="stop-color:#e9e9e9;stop-opacity:1"/><stop offset=".869" style="stop-color:#dbdbdb;stop-opacity:1"/><stop offset=".912" style="stop-color:#c5c5c5;stop-opacity:1"/><stop offset=".956" style="stop-color:#a6a6a6;stop-opacity:1"/><stop offset="1" style="stop-color:gray;stop-opacity:1"/></linearGradient><linearGradient xlink:href="#e" id="j" x1="478.768" x2="508.817" y1="326.792" y2="262.35" gradientTransform="translate(-1478.337 -836.488)scale(4.43364)" gradientUnits="userSpaceOnUse"/><linearGradient xlink:href="#d" id="i" x1="455.759" x2="520.031" y1="273.013" y2="302.983" gradientTransform="translate(-1478.337 -836.488)scale(4.43364)" gradientUnits="userSpaceOnUse"/><radialGradient id="c" cx="502.47" cy="288.577" r="50.769" gradientUnits="userSpaceOnUse"><stop offset="0" style="stop-color:#fff;stop-opacity:1"/><stop offset=".178" style="stop-color:#fcfcfc;stop-opacity:1"/><stop offset=".319" style="stop-color:#f2f2f2;stop-opacity:1"/><stop offset=".565" style="stop-color:#e3e3e3;stop-opacity:1"/><stop offset=".797" style="stop-color:#d1d1d1;stop-opacity:1"/><stop offset="1" style="stop-color:#bfbfbf;stop-opacity:1"/></radialGradient><radialGradient xlink:href="#c" id="h" cx="502.47" cy="288.577" r="50.769" gradientTransform="translate(-1478.337 -836.488)scale(4.43364)" gradientUnits="userSpaceOnUse"/><radialGradient xlink:href="#a" id="f" cx="486.483" cy="291.161" r="35.544" gradientTransform="translate(-1478.337 -836.488)scale(4.43364)" gradientUnits="userSpaceOnUse"/><radialGradient id="a" cx="486.483" cy="291.161" r="35.544" gradientUnits="userSpaceOnUse"><stop offset=".841" style="stop-color:#fff;stop-opacity:1"/><stop offset="1" style="stop-color:#b2b2b2;stop-opacity:1"/></radialGradient></defs><g transform="translate(304.089 -1802.04)scale(6.07112)"><circle cx="678.553" cy="454.411" r="157.589" style="fill:url(#f)"/><path d="M568.67 385.193c37.979-60.143 117.957-77.85 178.627-39.544 60.688 38.316 79.087 118.13 41.104 178.286-37.978 60.15-117.952 77.854-178.635 39.543-60.666-38.298-79.074-118.134-41.096-178.285" style="fill:#fff"/><path d="M570.324 385.237c37.243-58.99 116.29-76.325 176.3-38.43 60.035 37.907 78.324 116.684 41.072 175.678-37.233 58.994-116.108 76.09-176.135 38.2-60.018-37.885-78.497-116.454-41.237-175.448" style="fill:#fefefe"/><path d="M571.978 385.281c36.515-57.832 114.618-74.804 173.993-37.318 59.38 37.487 77.536 115.24 41.02 173.072-36.515 57.846-114.254 74.348-173.63 36.857-59.375-37.478-77.917-114.77-41.383-172.61" style="fill:#fdfdfd"/><path d="M573.631 385.317c35.78-56.675 112.956-73.27 171.675-36.196s76.773 113.793 40.985 170.473c-35.788 56.675-112.41 72.565-171.13 35.5-58.728-37.065-77.327-113.093-41.53-169.777" style="fill:#fcfcfc"/><path d="M575.285 385.366c35.044-55.518 111.293-71.754 169.352-35.088 58.072 36.666 76.006 112.348 40.949 167.87-35.052 55.528-110.557 70.81-168.633 34.149-58.068-36.662-76.73-111.413-41.668-166.931" style="fill:#fbfbfb"/><path d="M576.939 385.41c34.307-54.365 109.622-70.224 167.033-33.97 57.42 36.253 75.234 110.898 40.909 165.263-34.325 54.374-108.704 69.054-166.124 32.792-57.429-36.241-76.161-109.72-41.818-164.085" style="fill:#fafafa"/><path d="M578.597 385.445c33.58-53.199 107.95-68.699 164.719-32.853 56.764 35.846 74.463 109.458 40.865 162.662-33.599 53.203-106.86 67.289-163.628 31.443-56.773-35.828-75.567-108.039-41.956-161.252" style="fill:#f9f9f9"/><path d="M580.233 385.494c32.853-52.055 106.297-67.17 162.418-31.745 56.112 35.434 73.691 108.008 40.829 160.064-32.871 52.05-105.006 65.529-161.136 30.095-56.126-35.43-74.973-106.367-42.11-158.414" style="fill:#f8f8f8"/><path d="M581.896 385.539c32.126-50.899 104.616-65.654 160.085-30.624 55.465 35.017 72.92 106.558 40.794 157.452-32.144 50.894-103.162 63.77-158.631 28.752-55.483-35.02-74.401-104.691-42.248-155.58" style="fill:#f7f7f7"/><path d="M583.55 385.578c31.399-49.736 102.944-64.123 157.757-29.51 54.831 34.618 72.167 105.117 40.759 154.854-31.408 49.74-101.309 62-156.122 27.395-54.822-34.609-73.811-102.998-42.395-152.739" style="fill:#f6f6f6"/><path d="M585.203 385.623c30.654-48.58 101.282-62.594 155.448-28.398 54.175 34.197 71.39 103.672 40.71 152.247-30.672 48.588-99.456 60.249-153.617 26.052-54.17-34.197-73.23-101.322-42.54-149.901" style="fill:#f5f5f5"/><path d="M586.857 385.663c29.927-47.427 99.62-61.074 153.125-27.285 53.514 33.789 70.627 102.226 40.674 149.649-29.945 47.435-97.602 58.488-151.125 24.695-53.519-33.78-72.637-99.637-42.674-147.06" style="fill:#f4f4f4"/><path d="M588.493 385.703c29.227-46.27 97.966-59.544 150.824-26.163 52.857 33.38 69.847 100.772 40.638 147.046-29.217 46.27-95.757 56.72-148.629 23.347-52.87-33.38-72.05-97.957-42.833-144.23" style="fill:#f3f3f3"/><path d="M590.156 385.747c28.481-45.108 96.285-58.014 148.491-25.055 52.224 32.978 69.085 99.336 40.594 144.444-28.481 45.117-93.904 54.96-146.119 21.99-52.224-32.963-71.475-96.267-42.966-141.38" style="fill:#f2f2f2"/><path d="M591.8 385.787c27.755-43.95 94.614-56.49 146.19-23.933 51.56 32.56 68.306 97.89 40.56 141.837-27.764 43.96-92.06 53.199-143.632 20.638-51.55-32.547-70.872-94.587-43.118-138.542" style="fill:#f1f1f1"/><path d="M593.463 385.827c27.019-42.798 92.942-54.964 143.858-22.816 50.907 32.14 67.542 96.432 40.52 139.23-27.024 42.798-90.216 51.443-141.123 19.29-50.916-32.134-70.291-92.902-43.255-135.704" style="fill:#f0f0f0"/><path d="M595.117 385.867c26.282-41.641 91.27-53.435 141.54-21.703 50.25 31.74 66.774 94.99 40.474 136.631-26.283 41.646-88.354 49.67-138.622 17.939-50.26-31.723-69.706-91.218-43.392-132.867" style="fill:#efefef"/><path d="M596.753 385.911c25.564-40.475 89.617-51.91 139.225-20.59 49.626 31.324 66.021 93.55 40.44 134.025-25.547 40.492-86.501 47.923-136.11 16.59-49.598-31.31-69.115-89.537-43.555-130.025" style="fill:#eee"/><path d="M598.407 385.95c24.828-39.317 87.945-50.379 136.906-19.467 48.96 30.907 65.24 92.1 40.413 131.426-24.838 39.34-84.656 46.154-133.626 15.239-48.956-30.903-68.526-87.866-43.693-127.197" style="fill:#ededed"/><path d="M600.06 385.995c24.102-38.165 86.275-48.854 134.592-18.355 48.31 30.499 64.47 90.65 40.364 128.824-24.101 38.178-82.811 44.394-131.111 13.886-48.314-30.495-67.941-86.181-43.845-124.355" style="fill:#ececec"/><path d="M601.723 386.03c23.356-37.002 84.603-47.328 132.264-17.237 47.653 30.09 63.698 89.209 40.32 126.221-23.365 37.025-80.958 42.63-128.611 12.534-47.653-30.087-67.352-84.488-43.973-121.517" style="fill:#ebebeb"/><path d="M603.368 386.075c22.634-35.85 82.949-45.804 129.963-16.116 47.006 29.674 62.927 87.755 40.275 123.614-22.633 35.864-79.096 40.865-126.106 11.182-47.01-29.684-66.784-82.82-44.132-118.68" style="fill:#eaeaea"/><path d="M605.022 386.124c21.897-34.693 81.277-44.279 127.63-15.013 46.354 29.276 62.174 86.315 40.25 121.017-21.907 34.702-77.261 39.109-123.615 9.829-46.35-29.262-66.18-81.127-44.265-115.833" style="fill:#e9e9e9"/><path d="M606.675 386.168c21.17-33.54 79.606-42.753 125.322-13.895 45.697 28.863 61.388 84.869 40.204 118.4-21.17 33.554-75.416 37.358-121.118 8.49-45.702-28.853-65.587-79.45-44.408-112.995" style="fill:#e8e8e8"/><path d="M608.334 386.2c20.425-32.38 77.934-41.225 122.998-12.774 45.045 28.442 60.625 83.419 40.173 115.807-20.461 32.396-73.563 35.584-118.627 7.129-45.059-28.438-65.01-77.762-44.544-110.163" style="fill:#e7e7e7"/><path d="M609.987 386.248c19.708-31.222 76.272-39.699 120.68-11.67 44.407 28.039 59.854 81.974 40.12 113.21-19.7 31.239-71.701 33.823-116.109 5.785-44.407-28.03-64.438-76.09-44.69-107.325" style="fill:#e6e6e6"/><path d="M611.641 386.297c18.972-30.074 74.6-38.178 118.356-10.557 43.756 27.622 59.092 80.533 40.085 110.597-18.972 30.078-69.857 32.064-113.612 4.438-43.747-27.621-63.836-74.414-44.829-104.478" style="fill:#e6e6e6"/><path d="M613.286 386.341c18.253-28.916 72.947-36.657 116.055-9.435 43.1 27.214 58.311 79.079 40.031 107.986-18.235 28.925-67.994 30.308-111.111 3.081-43.086-27.204-63.246-72.716-44.975-101.632" style="fill:#e5e5e5"/><path d="M614.93 386.38c17.518-27.763 71.285-35.131 113.733-8.325 42.447 26.8 57.548 77.637 40.013 105.392-17.517 27.772-66.159 28.539-108.615 1.733-42.448-26.801-62.665-71.049-45.13-98.8" style="fill:#e4e4e4"/><path d="M616.585 386.42c16.799-26.605 69.612-33.606 111.412-7.213 41.81 26.398 56.782 76.197 39.983 102.794-16.79 26.615-64.323 26.784-106.124.386-41.8-26.389-62.07-69.364-45.271-95.966" style="fill:#e3e3e3"/><path d="M618.238 386.465c16.072-25.449 67.941-32.077 109.086-6.092 41.166 25.981 56.019 74.738 39.938 100.187-16.046 25.454-62.444 25.02-103.61-.97-41.144-25.982-61.486-67.68-45.414-93.125" style="fill:#e2e2e2"/><path d="M619.892 386.505c15.327-24.292 66.27-30.548 106.77-4.979 40.511 25.573 55.249 73.297 39.904 97.593-15.327 24.292-60.617 23.255-101.118-2.323-40.497-25.573-60.9-65.999-45.556-90.29" style="fill:#e1e1e1"/><path d="M621.537 386.55c14.609-23.135 64.616-29.019 104.47-3.867 39.84 25.161 54.467 71.856 39.84 94.982-14.582 23.153-58.745 21.503-98.604-3.666-39.836-25.161-60.315-64.324-45.706-87.45" style="fill:#e0e0e0"/><path d="M623.19 386.59c13.874-21.97 62.945-27.503 102.138-2.745 39.212 24.744 53.714 70.402 39.823 92.375-13.864 21.99-56.901 19.734-96.112-5.024-39.18-24.744-59.73-62.634-45.848-84.607" style="fill:#dfdfdf"/><path d="M624.853 386.63c13.137-20.817 61.264-25.969 99.82-1.628 38.55 24.332 52.928 68.956 39.782 89.772-13.137 20.834-55.066 17.979-93.607-6.375-38.555-24.332-59.15-60.95-45.995-81.77" style="fill:#dedede"/><path d="M626.498 386.674c12.41-19.664 59.61-24.443 97.514-.52 37.885 23.934 52.157 67.52 39.72 87.17-12.391 19.677-53.194 16.219-91.097-7.714-37.89-23.928-58.555-59.278-46.137-78.936" style="fill:#ddd"/><path d="M628.152 386.713c11.683-18.497 57.939-22.913 95.186.603 37.242 23.52 51.394 66.066 39.703 84.572-11.674 18.52-51.36 14.45-88.61-9.08-37.239-23.516-57.975-57.593-46.28-76.095" style="fill:#dcdcdc"/><path d="M629.797 386.753c10.955-17.344 56.276-21.392 92.871 1.72 36.604 23.104 50.632 64.616 39.65 81.96-10.929 17.367-49.497 12.69-86.092-10.423-36.582-23.103-57.371-55.903-46.43-73.257" style="fill:#dbdbdb"/><path d="M631.45 386.793c10.22-16.183 54.614-19.862 90.544 2.833 35.953 22.692 49.87 63.18 39.633 79.363-10.211 16.209-47.662 10.933-83.597-11.772-35.943-22.691-56.803-54.223-46.58-70.424" style="fill:#dadada"/><path d="M633.104 386.838c9.493-15.03 52.942-18.338 88.239 3.954 35.287 22.275 49.089 61.726 39.583 76.756-9.483 15.056-45.817 9.168-81.104-13.124-35.292-22.283-56.215-52.552-46.718-67.586" style="fill:#d9d9d9"/><circle cx="678.553" cy="454.411" r="157.589" style="fill:#d40e2a"/><path d="M828.109 454.836c.018-82.638-66.93-149.648-149.573-149.675-82.648-.03-149.644 66.935-149.671 149.556-.053 82.63 66.93 149.653 149.547 149.688 82.647.027 149.662-66.935 149.697-149.569" style="fill:url(#g)"/><path d="M283.188 448.088c0 44.975-31.882 78.285-76.91 78.285-45.906 0-77.07-31.878-77.07-78.25 0-43.857 30.747-78.31 77.07-78.31 45.023 0 76.91 33.31 76.91 78.275m-39.756.01c0-26.292-10.162-49.618-37.132-49.618-26.979 0-37.371 23.33-37.371 49.617 0 26.3 10.392 49.64 37.37 49.64 26.97.003 37.133-23.34 37.133-49.64M12.519 434.189c-1.858-20.342-9.342-36.706-21.827-47.795-12.028-10.698-28.176-16.47-48.14-16.47-14.716 0-33.337 5.067-47.037 16.333-16.342 13.443-28.991 34.476-28.991 62.771 0 24.399 7.905 44.048 22.168 57.358 13.961 13.035 33.709 20.151 58.196 20.151 19.712 0 43.52-7.44 53.73-13.753 3.574-2.208 4.696-3.157 3.77-6.766l-6.376-18.058c-.74-2.962-4.026-3.72-6.695-2.394-4.482 2.203-7.83 3.937-12.374 5.613-8.827 3.263-17.96 5.489-26.655 5.489-18.307 0-28.717-4.975-36.689-14.157-5.063-5.83-8.029-13.221-8.951-21.76H7.668c3.676 0 5.312-2.54 5.312-6.837v-7.28c0-3.547-.16-9.115-.461-12.445m-36.2-.608H-93.41c.75-5.058 2.195-9.864 4.465-14.427 6.216-12.538 18.072-20.54 32.76-20.54 20.178 0 32.503 13.704 32.503 34.045zM48.835 391.497c11.43-14.737 29.244-21.427 58.413-21.427 6.854 0 15.27.767 20.554 2.017 3.476.825 4.008 3.538 3.37 7.027l-3.463 17.017c-.802 3.178-1.671 4.087-4.172 4.087-.39 0-1.13-.07-2.04-.181-2.402-.293-9.288-1.051-12.16-1.051-14.499 0-21.41 3.618-26.563 9.146-5.99 6.43-6.198 15.935-6.198 32.969v75.611c0 4.98-2.181 7.763-7.52 7.763H45.98c-4.944 0-7.072-2.473-7.476-7.763v-74.228c-.01-27.045 1.574-39.685 10.33-50.987M-209.824 422.919c5.183-5.36 17.22-20.231 30.592-45.45 2.226-4.327 4.239-5.378 7.25-5.378h24.828c2.221 0 4.899 1.073 3.45 5.378-9.844 29.258-32.37 54.88-44.798 68.145 13.571 12.853 37.632 43.282 48.943 73.093 1.02 2.683.518 5.76-5.157 5.76h-29.652c-3.081 0-5.467-.302-7.528-5.37-7.36-18.328-18.843-37.544-31.967-50.18-14.316 15.2-25.232 33.94-32.583 50.18-1.795 3.977-3.59 5.37-7.506 5.37h-27.196c-1.817 0-3.666-2.133-2.474-5.396 8.087-22.19 24.204-49.808 47.25-70.57-18.085-21.894-35.527-48.566-42.404-71.032-1.033-3.378.772-5.378 3.281-5.378h31.945c3.453 0 5.258 1.406 6.965 5.378 7.856 18.311 18.594 35.753 26.761 45.45M361.876 422.919c5.179-5.36 17.216-20.231 30.584-45.45 2.225-4.327 4.243-5.378 7.257-5.378h24.82c2.226 0 4.908 1.073 3.454 5.378-9.838 29.258-32.37 54.88-44.789 68.145 13.554 12.853 37.615 43.282 48.934 73.093 1.016 2.683.51 5.76-5.16 5.76h-29.653c-3.072 0-5.453-.302-7.532-5.37-7.351-18.328-18.835-37.544-31.963-50.18-14.32 15.2-25.231 33.94-32.587 50.18-1.791 3.977-3.587 5.37-7.497 5.37h-27.192c-1.809 0-3.67-2.133-2.478-5.396 8.087-22.19 24.203-49.808 47.245-70.57-18.09-21.894-35.531-48.566-42.403-71.032-1.03-3.378.78-5.378 3.28-5.378h31.945c3.445 0 5.258 1.406 6.96 5.378 7.861 18.311 18.6 35.753 26.775 45.45" style="fill:#d40e2a"/><path d="M760.19 505.797c-29.138 60.013-75.997 99.167-112.774 103.108-19.96-3.635-41.002-12.906-56.458-23.516.328.129 1.445.19 2.235.19 32.334 0 83.658-57.463 114.65-129.2-40.883-30.743-92.589-55.655-141.452-55.655-24.793 0-37.012 9.142-39.84 12.339 3.387-13.394 8.592-25.113 15.1-36.698 6.132-10.906 13.266-20.51 19.327-26.81 5.897-4.527 21.379-10.676 44.398-10.676 48.127 0 91.462 16.905 125.623 40.44 2.053-12.712 3.17-25.41 3.17-37.882 0-30.33-9.076-36.617-11.691-38.422 11.022 3.05 20.816 7.218 29.98 12.069 8.113 4.296 14.946 8.685 23.303 15.238 3.006 4.19 11.873 15.61 11.873 55.527 0 15.034-1.21 29.621-3.453 43.65 23.032 29.59 36.231 61.228 36.231 84.225 0 5.076-.833 10.21-1.419 12.41a157.8 157.8 0 0 1-31.873 42.598c.51-1.184 1.202-3.627 1.202-7.103 0-14.25-10.81-34.688-28.132-55.832" style="fill:url(#h)"/><path d="M795.939 559.563c1.108-1.228 1.542-7.111 1.542-7.994 0-52.4-100.058-168.496-222.165-168.496-27.617 0-39.747 9.661-42.882 12.18-.674 2.088-1.507 4.087-2.27 6.012 3.024-2.27 16.01-12.14 42.31-12.14 117.762 0 221.536 115.248 221.536 167.087 0 1.981-.435 5.058-1.392 6.951a150 150 0 0 0 3.32-3.6M548.027 366.026c4.15-3.897 19.122-11.244 45.498-11.244 122.608 0 219.275 112.814 219.275 176.082 0 1.64-.346 5.658-1.725 8.859 1.135-1.791 2.598-4.008 3.263-5.179 1.645-2.917 1.743-7.563 1.743-10.06 0-64.558-95.594-175.399-218.437-175.399-28.384 0-39.712 6.54-44.682 10.091-1.157 1.508-3.427 4.682-4.935 6.85m-6.504 10.694c0-.089-3.006 5.263-3.75 7.014 3.617-2.669 16.08-11.328 42.544-11.328 131.892 0 223.265 120.325 223.265 171.4 0 2.479-.372 6.376-1.69 8.601 1.672-2.092 3.034-3.848 3.925-5.094 1.924-2.638 1.498-8.158 1.498-9.794 0-50.016-89.661-171.36-221.664-171.36-27.329 0-39.224 6.62-44.128 10.561" style="opacity:.8;fill:url(#i)"/><path d="M739.875 309.191c3.1 3.326 9.44 17.615 9.44 39.012 0 116.44-80.688 233.245-142.595 246.51-1.836-.94-3.317-1.716-5.108-2.74 46.961-5.422 142.484-118.17 142.484-245.943 0-19.756-5.471-34.777-10.02-39.162 1.773.66 4.035 1.574 5.8 2.323m21.565 11.138c2.297 1.977 11.302 18.27 11.302 43.298 0 126.687-72.965 227.655-143.992 240.454 2.545.768 4.208 1.348 6.58 2.018 75.762-10.81 143.047-121.872 143.047-236.57 0-26.42-8.477-42.608-11.403-45.622-1.778-1.189-3.49-2.222-5.534-3.578m-13.908-7.662c2.053 2.066 10.876 18.2 10.876 44.89 0 119.718-80.706 228.812-144.023 240.858a161 161 0 0 0 5.432 2.31c72.14-14.028 144.057-127.578 144.057-240.777 0-22.328-7.466-41.3-10.747-44.43-1.87-.997-4.167-2.172-5.595-2.85" style="opacity:.8;fill:url(#j)"/></g></svg>