<svg xmlns="http://www.w3.org/2000/svg" width="102" height="23" viewBox="0 0 102 23">
  <path fill="white" d="M88.31 22.31h-2.45l11.12-16.2h4.27l-10.94 16.2h-2zm-1.69-16.2h4.27l2.19 3.23-2.16 3.17-4.3-6.4zm-6.03 14.1c-1.55 1.75-3.1 2.48-5.38 2.48-4.74 0-8.17-3.54-8.17-8.42 0-4.95 3.46-8.54 8.25-8.54 2.34 0 3.95.76 5.3 2.54V6.11h3.57v16.2h-3.57v-2.1zM75.7 9.3c-2.78 0-4.74 2.1-4.74 5.06 0 2.83 1.96 4.76 4.8 4.76 2.96 0 4.71-2.1 4.71-4.79 0-2.96-1.99-5.03-4.77-5.03zm-13.8 4.37l-.03 1.28v7.37h-3.89V6.12h3.57v2.66c.03 0 .11-.53.25-.79.16-.33.45-.73.81-1.02.94-.76 1.92-.87 3.17-.87h.29v3.68c-2.34.06-4.17 1.38-4.17 3.89zm-12.33 8.64h-3.89V9.78H42.7V6.11h2.98V.69h3.89v5.42h6.98v3.67h-6.98v12.53zm-12.44-8.65l-.02 1.28v7.37h-3.9V6.11h3.57v2.66c.03 0 .12-.53.25-.79.17-.33.45-.73.81-1.02.95-.76 1.92-.88 3.17-.88h.3v3.69c-2.35.06-4.18 1.38-4.18 3.89zm-14.94 9.03c-4.74 0-8.6-3.8-8.6-8.48 0-4.65 3.86-8.48 8.57-8.48 4.89 0 8.66 3.77 8.66 8.6 0 4.56-3.92 8.36-8.63 8.36zm0-13.39c-2.54 0-4.68 2.19-4.68 4.85 0 2.78 2.08 4.97 4.71 4.97 2.58 0 4.68-2.19 4.68-4.91 0-2.69-2.1-4.91-4.71-4.91zM6.42 18.83h5.96v3.48H3.74l2.68-3.48zM.04 22.31v-3.48L9.85 6.11h1.98v3.48L2.04 22.31h-2zM.45 9.59V6.11h7.68l-2.7 3.48H.45zm101.56 12.72h-4.45l-2.83-4.15 2.19-3.26 5.09 7.41z"/>
</svg>
